<?xml version="1.0" encoding="UTF-8"?>
<!DOCTYPE svg PUBLIC "-//W3C//DTD SVG 1.1//EN" "http://www.w3.org/Graphics/SVG/1.1/DTD/svg11.dtd">
<!-- Creator: CorelDRAW 2020 (64-Bit) -->
<svg xmlns="http://www.w3.org/2000/svg" xml:space="preserve" width="313px" height="74px" version="1.1" style="shape-rendering:geometricPrecision; text-rendering:geometricPrecision; image-rendering:optimizeQuality; fill-rule:evenodd; clip-rule:evenodd"
viewBox="0 0 313 74"
 xmlns:xlink="http://www.w3.org/1999/xlink"
 xmlns:xodm="http://www.corel.com/coreldraw/odm/2003">
 <defs>
  <style type="text/css">
   <![CDATA[
    .str0 {stroke:#196DA0;stroke-width:0.9;stroke-miterlimit:22.9256}
    .fil0 {fill:#196DA0;fill-rule:nonzero}
    .fil1 {fill:#196DA0;fill-rule:nonzero}
   ]]>
  </style>
 </defs>
 <g id="Слой_x0020_1">
  <metadata id="CorelCorpID_0Corel-Layer"/>
  <g id="_2606087712464">
   <g>
    <path class="fil0 str0" d="M12.64 2.47l0 0.4c0,0.3 0.02,0.5 0.05,0.62 0.08,0.11 0.25,0.24 0.51,0.39l0.34 0.11 0.28 0.17c2.48,1.74 4.15,4.77 5.01,9.09 0.34,1.66 0.55,3.45 0.62,5.37 0.04,1.58 -0.02,3.07 -0.17,4.46 -0.52,5.45 -2.33,9.31 -5.4,11.57 -0.04,0 -0.12,0.04 -0.23,0.11l-0.28 0.17c-0.3,0.19 -0.47,0.34 -0.51,0.45 -0.11,0.27 -0.15,0.74 -0.11,1.42 0,0.56 0.04,1.07 0.11,1.52 0,0.04 0.02,0.26 0.06,0.68l0 0.56 0.05 0.62c0.08,1.09 0.16,1.68 0.23,1.75 0.11,0.08 0.26,0.12 0.45,0.12l0.28 -0.06 0.23 0c0.41,-0.04 0.62,0.13 0.62,0.51 0.04,0.3 -0.13,0.49 -0.51,0.56 -0.11,0.04 -0.28,0.06 -0.51,0.06l-0.62 0c-1.2,0.04 -3.07,0.17 -5.63,0.39 -0.94,0.08 -1.41,-0.07 -1.41,-0.45 0,-0.26 0.17,-0.45 0.51,-0.56l0.4 -0.06 0.16 0 0.17 -0.05c0.15,-0.04 0.21,-0.21 0.17,-0.51 0,-0.27 0.02,-1 0.06,-2.2 0.04,-0.61 0.05,-1.08 0.05,-1.42l0 -1.46 0.06 -0.4c0,-0.3 -0.02,-0.47 -0.06,-0.51 -0.03,-0.07 -0.41,-0.24 -1.12,-0.51l-0.45 -0.16 -0.4 -0.12c-0.26,-0.07 -0.41,-0.13 -0.45,-0.17 -1.69,-1.24 -3.04,-3.1 -4.05,-5.59 -0.98,-2.44 -1.51,-5.13 -1.58,-8.07 -0.04,-2.41 0.13,-5 0.51,-7.79 0.37,-2.15 1.12,-4.14 2.25,-5.98 1.28,-2 3,-3.37 5.18,-4.13 0.34,-0.11 0.53,-0.32 0.57,-0.62 0.03,-0.37 -0.19,-0.52 -0.68,-0.45l-0.34 0.11 -0.28 0c-0.23,-0.03 -0.38,-0.15 -0.45,-0.33 -0.04,-0.12 -0.02,-0.27 0.06,-0.46 0.11,-0.22 0.22,-0.37 0.33,-0.45 0.3,-0.19 1.05,-0.28 2.26,-0.28l0.73 0.06 2.25 0 0.4 -0.06 0.84 -0.06c0.71,0 1.13,0.06 1.24,0.17 0.07,0.08 0.13,0.25 0.17,0.51 0,0.3 -0.04,0.47 -0.11,0.51 -0.15,0.11 -0.42,0.15 -0.79,0.11l-0.57 -0.11c-0.18,0 -0.37,0.02 -0.56,0.06l0.06 0.39zm-2.93 0.62c0.07,-0.07 0.11,-0.24 0.11,-0.51l-0.06 -0.28 0 -0.22 -0.16 0c0,0.03 -0.02,0.13 -0.06,0.28l-0.06 0.34c0,0.26 0.08,0.39 0.23,0.39zm-0.28 1.47c0.03,0.49 0.02,1.11 -0.06,1.86l-0.06 0.91 -0.05 0.96 -0.06 1.91 -0.05 1.93 -0.12 1.86 -0.05 1.86c-0.08,1.47 -0.1,2.79 -0.06,3.95l0.11 3.33 0.06 3.39c0.07,2.64 0.11,4.89 0.11,6.78l0 0.39c-0.04,0.23 -0.04,0.43 0,0.62 0,0.53 0.09,0.75 0.28,0.68 0.19,-0.08 0.23,-0.36 0.12,-0.85 0,-0.82 -0.04,-1.77 -0.12,-2.82 -0.26,-10.5 -0.22,-19.48 0.12,-26.93 0,-0.04 -0.02,-0.06 -0.06,-0.06l-0.11 0.23zm8.67 18.01c0.26,-3.16 0.02,-6.36 -0.73,-9.6 -0.94,-3.99 -2.46,-6.72 -4.56,-8.18 0.18,3.23 0.2,8.01 0.05,14.34l-0.11 3.67 -0.06 3.67c0,2.74 0.04,5.19 0.12,7.33 1.39,-0.82 2.61,-2.46 3.66,-4.91 0.94,-2.18 1.48,-4.29 1.63,-6.32zm-11.71 -15.36c-1.21,2.83 -1.9,6.42 -2.09,10.79 -0.19,6.7 0.58,11.53 2.31,14.51l0.06 0.11 0.17 0.17 0.28 0.34c0.22,0.34 0.37,0.49 0.45,0.45 0.15,-8.24 0.22,-17.71 0.22,-28.4 -0.03,0.11 -0.13,0.26 -0.28,0.45l-0.39 0.57c-0.42,0.49 -0.66,0.83 -0.73,1.01zm-5.53 11.58l0.29 -1.47c0.26,-1.32 0.47,-2.32 0.62,-2.99 0.52,-2.34 1.05,-4.11 1.57,-5.31 -2.14,3.42 -3.06,7.15 -2.76,11.18l0.28 -1.41zm10.37 7.28l0.11 -2.2 0.17 -4.41c0.08,-3.38 -0.02,-6.3 -0.28,-8.75l-0.11 4.35 -0.06 4.4c-0.08,3.43 -0.06,6.35 0.06,8.76l0.11 -2.15zm-8.79 -3.73c0,-0.79 0.04,-1.92 0.11,-3.38 0.08,-1.47 0.12,-2.53 0.12,-3.17l-0.12 0.74 -0.16 0.79c-0.08,0.64 -0.14,1.2 -0.17,1.69 -0.12,1.32 -0.04,2.43 0.22,3.33zm1.92 9.66c-1.32,-2.22 -2.28,-5.67 -2.88,-10.33 -0.26,4.29 0.7,7.73 2.88,10.33zm5.24 9.37c-0.04,-0.26 -0.04,-0.6 0,-1.02l0 -0.9c0,-0.04 0.03,-0.11 0.11,-0.23 0.04,-0.11 0.05,-0.2 0.05,-0.28 0.04,-0.07 0.04,-0.22 0,-0.45l-0.05 -0.23 0 -1.46c0,-0.49 -0.08,-0.76 -0.23,-0.79 -0.03,-0.04 -0.09,-0.04 -0.17,0 -0.07,0.03 -0.11,0.09 -0.11,0.16 0,0.8 -0.04,1.79 -0.11,3l-0.11 1.52 -0.12 1.47c0.57,0.08 0.81,-0.19 0.74,-0.79zm21.06 -40.48c0.68,-0.08 1.3,0 1.86,0.23l0.28 0.17c0.11,0.07 0.21,0.13 0.28,0.16l0.51 0.12 0.51 0.05c1.76,0.49 3.19,1.81 4.28,3.96 0.41,0.86 0.82,1.93 1.24,3.21 0.34,1.17 0.64,2.26 0.9,3.28 0.45,2.18 0.79,4.35 1.01,6.49l0 0.57c0,0.22 0.02,0.35 0.06,0.39 0.04,0.08 0.17,0.17 0.39,0.28l0.28 0.12 0.23 0.16c0.3,0.38 0.45,0.66 0.45,0.85 -0.04,0.38 -0.24,0.68 -0.62,0.91l-0.22 0.17 -0.23 0.11c-0.15,0.11 -0.24,0.24 -0.28,0.39 -0.04,0.15 -0.06,0.4 -0.06,0.74l0 0.73 -0.34 4.12 -0.16 1.41 -0.12 1.3c-0.15,1.06 -0.3,1.92 -0.45,2.6 -0.67,2.48 -1.61,4.52 -2.81,6.1 -0.6,0.82 -1.24,1.56 -1.92,2.2 -0.9,0.75 -1.78,1.26 -2.65,1.52 -0.97,0.27 -2.08,0.27 -3.32,0 -1.61,-0.3 -2.91,-1.18 -3.89,-2.65 -0.52,-0.72 -1.12,-2.03 -1.8,-3.95 -1.73,-4.71 -2.46,-9.71 -2.19,-15.02 0.22,-4.89 0.6,-8.37 1.12,-10.45 0.9,-3.8 2.05,-6.45 3.44,-7.96 1.09,-1.31 2.49,-2.08 4.22,-2.31zm3.44 1.75c-1.05,0.9 -1.8,2.63 -2.26,5.19 -0.56,3.28 -0.35,6.2 0.62,8.76l0.4 1.01 0.34 0.96c0.3,0.68 0.62,1.17 0.95,1.47 0.42,0.41 1.04,0.83 1.86,1.24 0.94,0.49 1.69,0.72 2.26,0.68 0.33,0 0.71,-0.08 1.12,-0.23 0.45,-0.19 0.72,-0.37 0.79,-0.56 0.04,-0.15 0.04,-0.53 0,-1.13l-0.06 -0.74 -0.05 -0.73c-0.34,-2.48 -0.75,-4.87 -1.24,-7.17 -0.98,-3.8 -2.07,-6.4 -3.27,-7.79 -0.04,-0.04 -0.15,-0.13 -0.34,-0.28l-0.39 -0.4c-0.34,-0.3 -0.58,-0.43 -0.73,-0.39 -0.04,0 -0.04,0.03 0,0.11zm-4.45 8.47c0.11,-2.9 0.82,-5.61 2.14,-8.13 -0.9,0.79 -1.56,1.92 -1.97,3.39 -0.42,1.54 -0.47,3.12 -0.17,4.74zm0.62 7.11c-2.07,-2.97 -2.88,-6.6 -2.43,-10.89 -0.9,4.59 -1.05,10.91 -0.45,18.96 0.23,3.02 0.45,5.31 0.68,6.89 0.34,2.49 0.83,4.52 1.46,6.1 0.19,0.56 0.47,1.15 0.85,1.75 0.49,0.75 0.92,1.15 1.3,1.19 0.22,0.03 0.54,0 0.95,-0.12l0.45 -0.17 0.45 -0.16c0.31,-0.16 0.66,-0.38 1.07,-0.68 0.31,-0.27 0.59,-0.53 0.85,-0.79 2.89,-2.98 4.47,-8.75 4.73,-17.34 -2.1,0.16 -4.05,-0.24 -5.86,-1.18 -1.69,-0.83 -3.04,-2.01 -4.05,-3.56zm-3.89 15.36c-0.82,-6.74 -1.16,-13.01 -1.01,-18.8 -0.53,2.86 -0.64,6.08 -0.34,9.65 0.22,2.68 0.67,5.72 1.35,9.15zm-2.98 -10.78c-0.12,1.12 -0.12,2.4 0,3.83 0.07,0.98 0.24,2.19 0.5,3.62 0.42,2.71 0.98,4.8 1.69,6.26 -0.56,-2.48 -0.99,-4.68 -1.29,-6.6 -0.45,-2.6 -0.73,-4.99 -0.85,-7.17 -0.04,-0.04 -0.05,-0.02 -0.05,0.06zm3.09 15.92c0.19,0.52 0.36,0.92 0.51,1.18 0.26,0.45 0.53,0.75 0.79,0.9 -0.23,-0.22 -0.45,-0.54 -0.68,-0.96l-0.28 -0.56 -0.34 -0.56zm31.77 -36.02c-0.04,3.76 0.06,9.27 0.28,16.54l0.17 8.35c0.08,3.13 0.11,5.93 0.11,8.42 0,1.09 0.02,1.88 0.06,2.37l0.06 1.18c0.03,0.49 0.05,0.85 0.05,1.08l-0.05 0.22 -0.12 0.28c-0.11,0.23 -0.13,0.38 -0.05,0.45 0.04,0.08 0.26,0.16 0.68,0.23l0.45 0.06c0.18,0.04 0.3,0.05 0.33,0.05 0.23,0.12 0.42,0.27 0.57,0.46 0.15,0.22 0.2,0.41 0.17,0.56 -0.08,0.19 -0.38,0.28 -0.9,0.28l-1.3 0 -4.79 0.17 -0.62 0.06 -0.62 0.05c-0.49,0.04 -0.84,0 -1.07,-0.11 -0.19,-0.04 -0.37,-0.15 -0.56,-0.34 -0.23,-0.22 -0.28,-0.43 -0.17,-0.62 0.04,-0.07 0.17,-0.11 0.39,-0.11l0.29 -0.06 0.39 -0.05 0.28 0 0.34 -0.06c0.3,-0.04 0.47,-0.08 0.51,-0.11 0.03,-0.04 0.03,-0.38 0,-1.02l-0.06 -0.79 0 -0.68c-0.04,-1.01 -0.06,-2.26 -0.06,-3.72l0 -6.21 -0.05 -2.49c0,-1.92 0.03,-3.59 0.11,-5.02 0.15,-4.29 0.09,-10.03 -0.17,-17.22l0 -0.62 -0.06 -0.74c0,-0.64 -0.01,-0.98 -0.05,-1.01 -0.11,-0.12 -0.6,-0.15 -1.47,-0.12l-0.95 0c-0.34,0.04 -0.55,0.06 -0.62,0.06 -0.34,-0.04 -0.85,-0.06 -1.52,-0.06l-0.45 0 -0.46 -0.05c-0.33,-0.04 -0.52,-0.04 -0.56,0 -0.04,0.04 -0.05,0.32 -0.05,0.84l0 2.43c0.03,0.6 0.01,0.94 -0.06,1.02 -0.19,0.15 -0.43,0.09 -0.73,-0.17 -0.12,-0.08 -0.23,-0.17 -0.34,-0.28 -0.12,-0.12 -0.17,-0.19 -0.17,-0.23 -0.11,-0.3 -0.15,-0.85 -0.11,-1.64l0.05 -0.9c0.04,-0.38 0.06,-0.66 0.06,-0.85l-0.06 -0.33 -0.05 -0.34c-0.04,-0.27 -0.02,-0.44 0.05,-0.51 0.08,-0.08 0.4,-0.11 0.96,-0.11l0.68 0.05 4.11 0c1.39,-0.04 2.46,-0.04 3.21,0l3.83 0c1.54,0 2.85,-0.04 3.94,-0.11l0.28 0 0.34 -0.06 0.45 0c0.08,-0.03 0.13,-0.13 0.17,-0.28 0.04,-0.15 0.08,-0.25 0.11,-0.28 0.15,-0.15 0.42,-0.17 0.79,-0.06 0.34,0.08 0.55,0.21 0.62,0.4 0.04,0.11 0.02,0.3 -0.05,0.56l-0.06 0.34 -0.06 0.28c-0.03,0.15 -0.03,0.45 0,0.91l0 1.29c-0.03,1.13 -0.18,1.75 -0.45,1.87 -0.41,0.11 -0.73,0.03 -0.96,-0.23 -0.18,-0.23 -0.28,-0.55 -0.28,-0.96 -0.03,-0.19 -0.05,-0.39 -0.05,-0.62 0,-0.26 0.02,-0.45 0.05,-0.56l0 -0.29 0.06 -0.34c0.04,-0.3 0.04,-0.47 0,-0.5 -0.11,-0.12 -0.53,-0.15 -1.24,-0.12 -0.26,0 -0.51,0.02 -0.73,0.06 -0.23,0.04 -0.36,0.06 -0.4,0.06l-1.18 0c-0.41,-0.04 -0.83,-0.04 -1.24,0zm-1.74 20.21c0,2.07 0.05,4.1 0.16,6.1l0 2.37 -0.05 1.18 0 1.19c0.04,1.77 0.22,3.12 0.56,4.06 -0.04,-3.72 -0.13,-8.18 -0.28,-13.38l-0.17 -6.6 -0.17 -6.67c-0.26,1.55 -0.36,3.45 -0.28,5.71l0.11 2.99 0.12 3.05zm-1.75 18.97l0.45 0c-0.04,-1.51 -0.08,-3.3 -0.11,-5.37l-0.06 -5.47c-0.04,-4.78 -0.11,-8.43 -0.22,-10.96 -0.08,1.59 -0.14,3.39 -0.17,5.42l-0.06 5.54c0,4.85 -0.08,8.49 -0.22,10.89l0.39 -0.05zm21.29 -40.99c0.68,-0.08 1.3,0 1.86,0.23l0.28 0.17c0.11,0.07 0.21,0.13 0.28,0.16l0.51 0.12 0.51 0.05c1.76,0.49 3.19,1.81 4.28,3.96 0.41,0.86 0.82,1.93 1.24,3.21 0.33,1.17 0.63,2.26 0.9,3.28 0.45,2.18 0.79,4.35 1.01,6.49l0 0.57c0,0.22 0.02,0.35 0.06,0.39 0.04,0.08 0.17,0.17 0.39,0.28l0.28 0.12 0.23 0.16c0.3,0.38 0.45,0.66 0.45,0.85 -0.04,0.38 -0.24,0.68 -0.62,0.91l-0.22 0.17 -0.23 0.11c-0.15,0.11 -0.24,0.24 -0.28,0.39 -0.04,0.15 -0.06,0.4 -0.06,0.74l0 0.73 -0.34 4.12 -0.16 1.41 -0.12 1.3c-0.15,1.06 -0.3,1.92 -0.45,2.6 -0.67,2.48 -1.61,4.52 -2.81,6.1 -0.61,0.82 -1.24,1.56 -1.92,2.2 -0.9,0.75 -1.78,1.26 -2.65,1.52 -0.97,0.27 -2.08,0.27 -3.32,0 -1.61,-0.3 -2.91,-1.18 -3.89,-2.65 -0.52,-0.72 -1.12,-2.03 -1.8,-3.95 -1.73,-4.71 -2.46,-9.71 -2.2,-15.02 0.23,-4.89 0.6,-8.37 1.13,-10.45 0.9,-3.8 2.05,-6.45 3.44,-7.96 1.09,-1.31 2.49,-2.08 4.22,-2.31zm3.44 1.75c-1.05,0.9 -1.81,2.63 -2.26,5.19 -0.56,3.28 -0.35,6.2 0.62,8.76l0.4 1.01 0.34 0.96c0.3,0.68 0.61,1.17 0.95,1.47 0.42,0.41 1.04,0.83 1.86,1.24 0.94,0.49 1.69,0.72 2.25,0.68 0.34,0 0.72,-0.08 1.13,-0.23 0.45,-0.19 0.71,-0.37 0.79,-0.56 0.04,-0.15 0.04,-0.53 0,-1.13l-0.06 -0.74 -0.05 -0.73c-0.34,-2.48 -0.75,-4.87 -1.24,-7.17 -0.98,-3.8 -2.07,-6.4 -3.27,-7.79 -0.04,-0.04 -0.15,-0.13 -0.34,-0.28l-0.39 -0.4c-0.34,-0.3 -0.58,-0.43 -0.73,-0.39 -0.04,0 -0.04,0.03 0,0.11zm-4.45 8.47c0.11,-2.9 0.82,-5.61 2.14,-8.13 -0.9,0.79 -1.56,1.92 -1.97,3.39 -0.42,1.54 -0.47,3.12 -0.17,4.74zm0.62 7.11c-2.07,-2.97 -2.88,-6.6 -2.43,-10.89 -0.9,4.59 -1.05,10.91 -0.45,18.96 0.23,3.02 0.45,5.31 0.68,6.89 0.34,2.49 0.83,4.52 1.46,6.1 0.19,0.56 0.47,1.15 0.85,1.75 0.49,0.75 0.92,1.15 1.3,1.19 0.22,0.03 0.54,0 0.95,-0.12l0.45 -0.17 0.45 -0.16c0.3,-0.16 0.66,-0.38 1.07,-0.68 0.3,-0.27 0.59,-0.53 0.85,-0.79 2.89,-2.98 4.47,-8.75 4.73,-17.34 -2.1,0.16 -4.06,-0.24 -5.86,-1.18 -1.69,-0.83 -3.04,-2.01 -4.05,-3.56zm-3.89 15.36c-0.83,-6.74 -1.16,-13.01 -1.01,-18.8 -0.53,2.86 -0.64,6.08 -0.34,9.65 0.22,2.68 0.67,5.72 1.35,9.15zm-2.99 -10.78c-0.11,1.12 -0.11,2.4 0,3.83 0.08,0.98 0.25,2.19 0.51,3.62 0.41,2.71 0.98,4.8 1.69,6.26 -0.56,-2.48 -0.99,-4.68 -1.29,-6.6 -0.45,-2.6 -0.74,-4.99 -0.85,-7.17 -0.04,-0.04 -0.06,-0.02 -0.06,0.06zm3.1 15.92c0.19,0.52 0.36,0.92 0.51,1.18 0.26,0.45 0.53,0.75 0.79,0.9 -0.23,-0.22 -0.45,-0.54 -0.68,-0.96l-0.28 -0.56 -0.34 -0.56zm39.94 -38.11l0.39 -0.06c0.42,-0.04 0.79,-0.06 1.13,-0.06 0.98,0.04 1.61,0.17 1.91,0.4 0.12,0.11 0.21,0.26 0.29,0.45 0.07,0.23 0.07,0.4 0,0.51 -0.08,0.08 -0.17,0.11 -0.29,0.11l-0.16 -0.05 -0.23 0 -0.22 -0.06 -0.29 -0.06c-0.07,0 -0.13,0.02 -0.17,0.06 -0.07,0.08 -0.11,0.51 -0.11,1.3l0 0.51 0.06 0.45 0 0.56c0,3.01 0.04,5.38 0.11,7.12l0 0.34 -0.06 0.28 0 0.45c0.04,0.26 0.21,0.39 0.51,0.39 1.47,0.04 3.64,0.02 6.53,-0.05l0.29 0 0.33 0.05c0.23,0 0.36,-0.01 0.4,-0.05 0.04,-0.04 0.05,-0.27 0.05,-0.68l0 -0.9c0,-0.53 0.02,-1.11 0.06,-1.75l0.06 -1.64c0,-1.2 -0.04,-2.3 -0.12,-3.28l-0.05 -0.56 -0.06 -0.51c-0.04,-0.41 -0.09,-0.66 -0.17,-0.73 -0.07,-0.08 -0.24,-0.13 -0.5,-0.17l-0.29 0c-0.11,0 -0.18,-0.02 -0.22,-0.06l-0.11 -0.05c-0.08,-0.08 -0.13,-0.15 -0.17,-0.23 -0.15,-0.26 -0.17,-0.51 -0.06,-0.73 0.08,-0.23 0.58,-0.34 1.52,-0.34l0.68 0 0.73 -0.06c0.68,-0.04 1.22,-0.06 1.63,-0.06 0.12,0 0.3,-0.01 0.57,-0.05l0.67 -0.06c0.57,-0.04 0.94,-0.02 1.13,0.06 0.04,0 0.07,0.04 0.11,0.11l0.23 0.23c0.11,0.22 0.15,0.41 0.11,0.56 -0.04,0.08 -0.11,0.11 -0.22,0.11l-0.29 0.06c-0.3,0.04 -0.47,0.09 -0.5,0.17 -0.08,0.08 -0.1,0.3 -0.06,0.68l0.06 0.39c0.03,0.19 0.05,0.3 0.05,0.34 0,0.94 -0.03,2.45 -0.11,4.52 -0.07,2.03 -0.11,3.59 -0.11,4.68l0 5.88 -0.06 5.98c0,4.67 0.06,8.6 0.17,11.8l0 1.24 0.06 1.24c0.03,0.98 0.13,1.62 0.28,1.92 0.04,0.04 0.11,0.13 0.22,0.28l0.17 0.18 0.12 0.16c0.26,0.38 0.31,0.7 0.16,0.96 -0.11,0.19 -0.6,0.29 -1.46,0.29 -0.3,0.03 -0.64,0.03 -1.01,0l-2.43 0c-0.79,-0.04 -1.27,-0.14 -1.46,-0.29 -0.08,-0.07 -0.15,-0.2 -0.23,-0.39 -0.03,-0.19 -0.03,-0.34 0,-0.45 0.04,-0.12 0.17,-0.17 0.4,-0.17l0.22 -0.06c0.12,0 0.19,-0.04 0.23,-0.11 0.04,-0.04 0.05,-0.28 0.05,-0.74l0 -0.96c0.04,-1.31 0.04,-2.86 0,-4.63l0 -4.68c-0.07,-4.07 -0.07,-7.17 0,-9.32l0 -5.98c0.04,-0.45 0.04,-0.7 0,-0.73 -0.03,-0.04 -0.28,-0.04 -0.73,0l-0.5 0.05 -0.4 0c-0.3,0.04 -0.62,0.06 -0.96,0.06l-1.86 0c-0.26,-0.04 -0.54,-0.08 -0.84,-0.11 -0.71,-0.04 -1.2,-0.06 -1.46,-0.06l-0.34 0c-0.15,0 -0.26,0.02 -0.34,0.06l-0.06 0 -0.22 0.05 -0.17 0 -0.11 0.06c-0.04,0.04 -0.06,0.26 -0.06,0.68l0.06 0.56 0 6.61 0.05 6.09c0,4.75 -0.05,8.81 -0.17,12.2l-0.05 0.39 0 0.46c0,0.33 0.05,0.56 0.17,0.67 0.03,0.04 0.15,0.08 0.34,0.12l0.22 0.11 0.23 0.17c0.07,0.15 0.13,0.32 0.16,0.51 0.04,0.22 0.04,0.35 0,0.39 -0.07,0.04 -0.26,0.06 -0.56,0.06l-0.62 0c-0.22,0.03 -0.58,0.07 -1.07,0.11l-1.24 0.06c-1.05,0.11 -1.89,0.2 -2.53,0.28l-0.45 0.06 -0.45 0.05c-0.34,0.08 -0.57,0.08 -0.68,0 -0.11,-0.07 -0.21,-0.21 -0.28,-0.39 -0.08,-0.19 -0.1,-0.34 -0.06,-0.46 0.04,-0.15 0.3,-0.26 0.79,-0.33l0.45 0c0.26,0 0.43,-0.04 0.51,-0.12 0.03,-0.03 0.05,-0.35 0.05,-0.96 0.04,-0.52 0.06,-1.01 0.06,-1.46 0,-0.87 0.02,-2.19 0.06,-3.96 0.03,-1.8 0.05,-3.1 0.05,-3.89l0 -5.2 -0.05 -5.3c-0.04,-4.29 -0.04,-7.79 0,-10.5l0 -3.56c0,-1.58 0.02,-2.92 0.05,-4.01 0,-0.19 0.02,-0.43 0.06,-0.73l0.06 -0.74c0.07,-0.56 0.11,-0.86 0.11,-0.9 -0.08,-0.08 -0.17,-0.13 -0.28,-0.17l-0.34 0c-0.26,-0.04 -0.38,-0.19 -0.34,-0.45 0.04,-0.34 0.45,-0.53 1.24,-0.57 0.23,-0.03 0.54,-0.05 0.96,-0.05l1.07 0zm0.22 1.52c0.08,0.6 0.11,1.47 0.11,2.6l-0.05 1.52 0 4.41c0,1.05 0.04,1.92 0.11,2.59l0.06 -2.88 0.05 -2.93c0.04,-2.41 0.1,-4.33 0.17,-5.76l-0.39 0c-0.11,0 -0.19,0.02 -0.23,0.06l0.17 0.39zm12.9 14.23l-0.05 -1.58c-0.08,-1.28 -0.1,-2.26 -0.06,-2.94 0,-0.86 0.02,-2.01 0.06,-3.44l0.05 -1.81 0.06 -1.75 0 -0.56 0.05 -0.68c0,-0.53 -0.03,-0.87 -0.11,-1.02l-0.05 0 -0.12 0.06 -0.05 0.06c-0.15,0.41 -0.23,1.05 -0.23,1.92l0.06 1.12 0 1.02c0,1.92 -0.02,4.39 -0.06,7.4l-0.05 7.56c-0.08,6.06 -0.04,10.97 0.11,14.74 0.26,-6.51 0.39,-12.69 0.39,-18.52l0 -1.58zm-13.57 26.31c0.52,-0.08 0.94,-0.11 1.24,-0.11 -0.42,-2.79 -0.77,-7.1 -1.07,-12.93 -0.12,-1.62 -0.21,-3.86 -0.29,-6.72l-0.11 -3.39 -0.11 -3.39c0,3.58 0.04,8 0.11,13.27l0.11 6.66 0.12 6.61zm13.8 -1.64l-0.06 0.23c0,0.18 0.08,0.3 0.23,0.33 0.11,-0.94 0.17,-2.08 0.17,-3.44l0 -1.81c-0.04,-0.45 -0.06,-1.01 -0.06,-1.69l-0.06 1.52 -0.11 1.59c-0.08,1.35 -0.11,2.37 -0.11,3.04l0 0.23zm-1.07 0.62c0.03,-0.11 0.03,-0.28 0,-0.51 -0.04,-0.19 -0.1,-0.34 -0.17,-0.45l0 0.28 -0.06 0.29c0,0.22 0.08,0.35 0.23,0.39zm22.53 0.68c-2.14,-8.66 -3.63,-16.22 -4.45,-22.7l0 -0.39 -0.06 -0.51c0,-0.41 -0.04,-0.66 -0.11,-0.73 -0.11,-0.12 -0.47,-0.15 -1.07,-0.12l-0.73 0.12 -0.34 0 -0.28 0.05 -1.19 0.12 -0.33 0.05 -0.34 0c-0.3,0 -0.47,0.02 -0.51,0.06 -0.07,0.04 -0.13,0.26 -0.17,0.68l-0.05 0.45c-0.04,0.19 -0.06,0.3 -0.06,0.34l-0.68 3.21 -0.62 3.17c-0.52,2.56 -0.92,4.79 -1.18,6.71l-0.22 1.87 -0.29 1.86c-0.18,1.43 -0.39,2.69 -0.62,3.78 -0.03,0.23 -0.15,0.68 -0.33,1.36 0.03,0.04 0.2,0.07 0.5,0.11l0.4 0.06c0.11,0 0.19,0.02 0.22,0.05l0.06 0.06 0.11 0.06c0.11,0.07 0.21,0.17 0.28,0.28 0.19,0.26 0.23,0.47 0.12,0.62 -0.08,0.11 -0.49,0.17 -1.24,0.17l-0.45 0.06 -1.19 0c-0.15,0 -0.32,0.02 -0.5,0.05l-0.23 0.06 -0.11 0c-0.19,-0.04 -0.36,-0.17 -0.51,-0.4 -0.15,-0.26 -0.19,-0.47 -0.11,-0.62 0.07,-0.11 0.3,-0.17 0.68,-0.17l0.39 0c0.11,-0.03 0.21,-0.09 0.28,-0.17 0.08,-0.07 0.15,-0.43 0.23,-1.07l0.05 -0.79c0.04,-0.3 0.08,-0.51 0.12,-0.62 1.16,-7.38 2.14,-13.12 2.92,-17.22l0.85 -4.18 0.79 -4.12c0.64,-3.27 1.12,-6.19 1.46,-8.75l0.06 -0.28 0 -0.28c0.04,-0.31 0.07,-0.55 0.11,-0.74 0,-0.04 0.02,-0.13 0.06,-0.28l0.11 -0.4c0.07,-0.3 0.09,-0.47 0.06,-0.5 -0.08,-0.08 -0.34,-0.06 -0.79,0.05 -0.23,0.08 -0.4,0.13 -0.51,0.17 -0.19,0 -0.34,-0.04 -0.45,-0.11 -0.11,-0.08 -0.19,-0.19 -0.23,-0.34 -0.07,-0.22 -0.09,-0.39 -0.05,-0.51 0.07,-0.22 0.47,-0.39 1.18,-0.51l0.9 -0.05c0.38,-0.04 0.66,-0.08 0.85,-0.11l0.67 -0.12c0.27,-0.03 0.49,-0.05 0.68,-0.05 0.34,0 0.75,-0.04 1.24,-0.12l0.62 -0.05 0.62 -0.06 0.39 0 0.45 -0.06c0.38,-0.03 0.62,-0.03 0.74,0 0.11,0.08 0.22,0.21 0.33,0.4 0.08,0.19 0.1,0.36 0.06,0.51 -0.04,0.03 -0.11,0.09 -0.23,0.17 -0.11,0.07 -0.2,0.13 -0.28,0.17l-0.39 0c-0.19,0 -0.3,0.01 -0.34,0.05 -0.04,0.04 0,0.42 0.11,1.13 0.04,0.26 0.1,0.53 0.17,0.79 0.04,0.26 0.08,0.45 0.12,0.57l0.61 3.04 0.62 3.05c0.46,2.41 0.81,4.5 1.07,6.27l0.17 1.24 0.17 1.36c0.12,1.09 0.23,1.95 0.34,2.59l0.45 2.49 0.45 2.48c0.38,2.03 0.66,3.71 0.85,5.03 0.11,1.01 0.32,2.24 0.62,3.67l0.33 1.92 0.4 1.86 0.05 0.28 0.06 0.28 0.17 0.79c0.11,0.64 0.21,0.98 0.28,1.02 0.11,0.08 0.3,0.09 0.56,0.06l0.51 0c0.23,0.11 0.38,0.32 0.45,0.62 0.04,0.26 0,0.47 -0.11,0.62 -0.08,0.11 -0.4,0.19 -0.96,0.22l-1.46 0c-0.34,0 -0.81,-0.01 -1.41,-0.05l-2.14 0c-0.38,0 -0.62,-0.08 -0.73,-0.23 -0.38,-0.67 -0.08,-0.98 0.9,-0.9zm-3.83 -34.44c-0.08,-0.83 -0.23,-1.77 -0.45,-2.82l-0.28 -1.36 -0.29 -1.3c-0.03,-0.07 -0.13,-0.11 -0.28,-0.11l-0.22 0.06 -0.23 0.05c0.15,1.58 0.51,3.5 1.07,5.76l0.68 2.77c0.26,1.05 0.47,1.99 0.62,2.82 -0.04,-0.75 -0.13,-1.71 -0.28,-2.88l-0.17 -1.47 -0.17 -1.52zm-3.21 8.81l1.12 0c0.64,0 1,-0.04 1.07,-0.11 0.04,-0.04 0.04,-0.27 0,-0.68l-0.11 -0.51c-0.04,-0.19 -0.06,-0.32 -0.06,-0.4 -0.11,-0.71 -0.26,-1.6 -0.45,-2.65l-0.33 -1.35 -0.29 -1.42c-0.52,-2.33 -0.82,-4.02 -0.9,-5.08 -0.22,1.73 -0.56,3.82 -1.01,6.27l-0.62 3.05 -0.56 3.05 2.14 -0.17zm7.43 12.19c-0.67,-4.78 -1.35,-8.69 -2.03,-11.74 0.42,2.82 1.09,6.74 2.03,11.74zm0.45 12.42c0.23,-1.31 0.12,-2.78 -0.33,-4.4l-1.3 -4.63 0.39 2.31 0.34 2.26c0.3,1.85 0.6,3.33 0.9,4.46z"/>
    <path class="fil0 str0" d="M175.31 1c0.45,-0.04 1.91,-0.02 4.39,0.06l1.58 0.06 1.69 0c1.28,0.03 2.38,0.05 3.32,0.05l0.68 0 0.73 -0.05c0.68,-0.04 1.22,-0.06 1.63,-0.06 0.12,0 0.3,-0.02 0.57,-0.06l0.67 -0.05c0.57,-0.04 0.94,-0.02 1.13,0.05 0.04,0 0.07,0.04 0.11,0.12l0.23 0.22c0.11,0.23 0.15,0.42 0.11,0.57 -0.04,0.07 -0.11,0.11 -0.23,0.11l-0.28 0.06c-0.3,0.03 -0.47,0.09 -0.5,0.17 -0.08,0.07 -0.12,0.35 -0.12,0.84l0.06 0.57 0 0.39c0,0.94 -0.04,2.45 -0.11,4.52 -0.08,2.03 -0.12,3.59 -0.12,4.68l0 5.88 -0.05 5.98c0,4.67 0.05,8.6 0.17,11.8l0 1.24 0.05 1.24c0.04,0.98 0.13,1.62 0.29,1.92 0.03,0.04 0.11,0.13 0.22,0.28l0.17 0.18 0.11 0.16c0.26,0.38 0.32,0.7 0.17,0.96 -0.11,0.19 -0.6,0.29 -1.46,0.29 -0.3,0.03 -0.64,0.03 -1.02,0l-2.42 0c-0.79,-0.04 -1.28,-0.14 -1.46,-0.29 -0.08,-0.07 -0.15,-0.2 -0.23,-0.39 -0.04,-0.19 -0.04,-0.34 0,-0.45 0.04,-0.12 0.17,-0.17 0.39,-0.17l0.23 -0.06c0.11,0 0.19,-0.04 0.23,-0.11 0.03,-0.04 0.05,-0.28 0.05,-0.74l0 -0.96c0.04,-1.58 0.02,-5.4 -0.05,-11.46 0,-0.75 -0.02,-1.93 -0.06,-3.55 -0.04,-1.66 -0.06,-2.84 -0.06,-3.56 -0.03,-2.11 -0.03,-4.23 0,-6.38 0,-1.58 0.02,-3.14 0.06,-4.69l0 -3.44c0,-0.45 0.02,-0.88 0.06,-1.3l0 -2.93c-0.04,-0.04 -0.29,-0.04 -0.74,0l-0.5 0.05 -0.4 0c-0.19,0 -0.64,-0.02 -1.35,-0.05l-0.96 -0.06 -1.07 -0.06c-1.84,-0.07 -2.87,-0.07 -3.1,0l0.12 2.32c0.03,0.9 0.07,1.71 0.11,2.43 0.04,0.94 0.06,1.82 0.06,2.65l0 8.07c0,1.43 -0.02,3.35 -0.06,5.76 -0.04,2.37 -0.06,4.29 -0.06,5.76 0,2.11 -0.07,5.68 -0.22,10.73l-0.06 0.39 0 0.45c0,0.34 0.06,0.57 0.17,0.68 0.04,0.04 0.15,0.08 0.34,0.11l0.22 0.12 0.23 0.17c0.07,0.15 0.13,0.32 0.17,0.5 0.04,0.23 0.04,0.36 0,0.4 -0.08,0.04 -0.26,0.06 -0.57,0.06l-0.61 0c-0.23,0.03 -0.59,0.07 -1.07,0.11l-1.24 0.06c-1.06,0.11 -1.9,0.2 -2.54,0.28l-0.45 0.05 -0.45 0.06c-0.34,0.08 -0.56,0.08 -0.68,0 -0.11,-0.07 -0.2,-0.21 -0.28,-0.39 -0.07,-0.19 -0.09,-0.34 -0.05,-0.46 0.03,-0.15 0.3,-0.26 0.78,-0.33l0.46 0c0.26,0 0.43,-0.04 0.5,-0.12 0.04,-0.04 0.06,-0.36 0.06,-0.96 0.04,-0.53 0.05,-1.01 0.05,-1.47 0,-0.86 0.04,-2.08 0.12,-3.67 0.07,-1.58 0.11,-2.76 0.11,-3.55l0 -5.2 -0.06 -5.3c-0.03,-4.29 -0.03,-7.79 0,-10.5l0 -3.56c0,-1.58 0.02,-2.92 0.06,-4.01l0 -0.68 0.06 -0.56c0.03,-0.45 0.03,-0.7 0,-0.73 -0.08,-0.08 -0.17,-0.14 -0.29,-0.17l-0.33 0c-0.27,-0.04 -0.38,-0.19 -0.34,-0.46 0.04,-0.33 0.45,-0.52 1.24,-0.56 0.22,-0.04 0.54,-0.06 0.96,-0.06l0.73 0zm0.56 1.53c0.15,1.01 0.23,2.74 0.23,5.19l0 2.94c0,1.05 0.03,1.92 0.11,2.59l0.06 -2.82 -0.06 -2.77c0,-2.33 0.04,-4.19 0.11,-5.58l-0.39 0c-0.11,0 -0.19,0.01 -0.23,0.05l0.17 0.4zm13.07 13.83l-0.06 -1.58c-0.07,-1.28 -0.09,-2.26 -0.05,-2.94 0,-0.86 0.02,-2.01 0.05,-3.44l0.06 -1.81 0.06 -1.75c0,-0.11 0.01,-0.32 0.05,-0.62l0.06 -0.79c0.04,-0.68 0.02,-1.09 -0.06,-1.24l-0.05 0 -0.12 0.06 -0.05 0.05c-0.15,0.42 -0.25,1.13 -0.29,2.15l0 2.31c0,1.92 -0.01,4.39 -0.05,7.4l-0.06 7.56c-0.07,6.06 -0.04,10.97 0.11,14.74 0.27,-6.51 0.4,-12.69 0.4,-18.52l0 -1.58zm-13.69 25.69c0.53,-0.08 0.94,-0.12 1.24,-0.12 -0.26,-1.8 -0.47,-3.82 -0.62,-6.04l-0.17 -3.05 -0.11 -1.58 -0.06 -1.63c-0.11,-1.62 -0.2,-3.86 -0.28,-6.72l-0.11 -3.39 -0.11 -3.39c0,5.46 0.07,14.1 0.22,25.92zm13.91 -1.02l-0.05 0.23c0,0.18 0.07,0.3 0.22,0.33 0.12,-0.94 0.17,-2.08 0.17,-3.44l0 -1.81c-0.04,-0.45 -0.05,-1.01 -0.05,-1.69l-0.06 1.52 -0.11 1.59c-0.08,1.35 -0.12,2.37 -0.12,3.04l0 0.23zm-1.07 0.62c0.04,-0.11 0.04,-0.28 0,-0.51 -0.03,-0.19 -0.09,-0.34 -0.16,-0.45l0 0.28 -0.06 0.29c0,0.22 0.07,0.35 0.22,0.39zm21.8 -0.45c-0.94,-4.29 -1.91,-10.05 -2.93,-17.28l-0.61 -4.4 -0.63 -4.46c-0.48,-3.42 -0.93,-6.34 -1.35,-8.75l-0.62 4.52 -0.56 4.57c-0.49,3.88 -0.92,6.92 -1.3,9.15 -1.12,6.69 -2.1,11.76 -2.92,15.18 -0.04,0.11 -0.08,0.28 -0.12,0.51l-0.22 0.68c-0.15,0.52 -0.21,0.81 -0.17,0.85 0.04,0.07 0.28,0.11 0.73,0.11l0.45 0.05c0.19,0 0.3,0.02 0.34,0.06 0.07,0.08 0.13,0.19 0.17,0.34 0.04,0.23 0.04,0.39 0,0.51 -0.11,0.34 -0.64,0.52 -1.58,0.56 -0.3,0.04 -0.71,0.06 -1.24,0.06l-1.07 0 -0.45 0.05 -0.51 0c-0.37,0 -0.62,-0.09 -0.73,-0.28 -0.04,-0.03 -0.07,-0.19 -0.11,-0.45 -0.04,-0.22 -0.04,-0.38 0,-0.45 0.11,-0.23 0.54,-0.34 1.29,-0.34l0.46 0.06 0.39 0c0.3,0 0.53,-0.06 0.68,-0.17 0.07,-0.04 0.16,-0.4 0.28,-1.08 0.04,-0.22 0.09,-0.48 0.17,-0.79l0 -0.28 0.05 -0.22c1.84,-9.3 3.64,-20.72 5.41,-34.27 0,-0.15 0.02,-0.38 0.06,-0.68l0.16 -0.79c0.08,-0.68 0.1,-1.04 0.06,-1.07 -0.07,-0.12 -0.41,-0.17 -1.01,-0.17 -0.3,0.03 -0.53,0.03 -0.68,0 -0.22,0 -0.39,-0.06 -0.51,-0.17 -0.03,-0.04 -0.07,-0.11 -0.11,-0.23l-0.11 -0.28c-0.04,-0.3 0,-0.51 0.11,-0.62 0.08,-0.08 0.38,-0.13 0.9,-0.17 0.45,0 0.85,0.02 1.19,0.06 2.25,0.07 4.3,0.05 6.14,-0.06l0.33 -0.06 0.4 -0.11c0.34,-0.08 0.54,-0.09 0.62,-0.06 0.15,0.08 0.22,0.27 0.22,0.57 0,0.26 -0.03,0.47 -0.11,0.62 -0.11,0.15 -0.39,0.24 -0.84,0.28l-0.51 0c-0.15,0 -0.25,0.04 -0.28,0.11 -0.08,0.04 -0.06,0.14 0.05,0.29l0.12 0.22 0.05 0.28c0,0.04 -0.02,0.12 -0.05,0.23 -0.08,0.08 -0.12,0.15 -0.12,0.23 0,0.22 0.06,0.56 0.17,1.01l0.17 0.62 0.17 0.62 0.56 3.39c0.23,1.32 0.42,2.52 0.57,3.62l0.28 2.37 0.28 2.42c0.23,1.96 0.43,3.6 0.62,4.92l0.62 4.12 0.56 4.06c0.49,3.28 0.94,6.02 1.35,8.24 0.04,0.12 0.08,0.31 0.12,0.57l0.11 0.73c0.11,0.6 0.19,0.92 0.23,0.96 0.11,0.12 0.33,0.12 0.67,0l0.34 -0.11c0.11,-0.04 0.2,-0.04 0.28,0 0.11,0.07 0.17,0.24 0.17,0.51 0.04,0.26 0.02,0.45 -0.06,0.56 -0.15,0.3 -0.69,0.47 -1.63,0.51 -0.34,0.04 -0.75,0.04 -1.24,0l-4.56 0c-0.41,0 -0.7,-0.06 -0.85,-0.17 -0.15,-0.07 -0.22,-0.28 -0.22,-0.62 -0.04,-0.3 -0.02,-0.51 0.05,-0.62 0.12,-0.15 0.38,-0.21 0.79,-0.17l0.51 0.06c0.19,0 0.38,-0.02 0.56,-0.06zm0.96 -19.14c0.19,1.13 0.38,2.54 0.56,4.23l0.23 2.26 0.28 2.37c0.45,4.07 0.85,7.14 1.18,9.21l0.06 0.34 0 0.28c0,0.19 0.04,0.34 0.11,0.45 0.08,0.23 0.34,0.28 0.79,0.17 -0.56,-2.41 -1.14,-5.57 -1.74,-9.48l-0.74 -4.86c-0.26,-1.92 -0.5,-3.52 -0.73,-4.8l0 -0.17zm0.06 10.95c0,1.89 0.11,3.66 0.33,5.31l0.12 0.85 0.11 0.9c0,0.64 -0.11,1.04 -0.34,1.19l0.51 0 0.51 0.05 -1.24 -8.3zm-2.93 -29.69l0 -0.34c-0.08,-0.23 -0.19,-0.36 -0.34,-0.4 0.3,2.19 0.79,5.2 1.46,9.04l0.79 4.51 0.74 4.58c-0.42,-5.09 -1.28,-10.81 -2.6,-17.17l-0.05 -0.22zm-1.18 2.93l-0.12 -0.51 -0.17 -1.12c-0.11,-0.94 -0.07,-1.6 0.12,-1.98l-0.85 0c0.41,1.81 0.88,4.23 1.41,7.28l0.62 3.73 0.67 3.73c-0.14,-1.51 -0.37,-3.3 -0.67,-5.37l-0.45 -2.65 -0.45 -2.6 -0.11 -0.51zm14.7 34.44c0.75,-2.52 1.8,-5.7 3.15,-9.54l1.69 -4.8c0.68,-1.88 1.24,-3.52 1.69,-4.91l0.79 -2.37 0.79 -2.43c0.6,-1.84 1.14,-3.46 1.63,-4.85 0.34,-0.98 0.77,-2.15 1.3,-3.5l0.67 -1.75 0.68 -1.75c0.04,-0.08 0.11,-0.27 0.23,-0.57l0.16 -0.34 0.12 -0.39c0.26,-0.68 0.37,-1.06 0.33,-1.13 -0.03,-0.04 -0.13,-0.06 -0.28,-0.06l-0.17 -0.05 -0.16 0c-0.53,-0.19 -0.57,-0.51 -0.12,-0.96 0.42,-0.42 0.85,-0.65 1.3,-0.68 0.41,-0.04 0.92,-0.02 1.52,0.05l0.84 0.17 0.96 0.12c0.15,0 0.41,0.03 0.79,0.11l0.51 0 0.45 0.06c0.79,0.11 1.2,0.22 1.24,0.33 0.03,0.12 0,0.27 -0.12,0.46l-0.17 0.28 -0.16 0.17 -0.29 0.17 -0.28 0.11c-0.19,0.04 -0.3,0.09 -0.34,0.17 -0.03,0.07 -0.05,0.32 -0.05,0.73l0.05 0.4 0 0.28c-0.03,1.17 -0.03,2.67 0,4.52l0.06 2.31 0 2.37c0,7.83 0.09,16.32 0.28,25.47l-0.05 0.67 -0.06 0.74c-0.04,0.49 -0.02,0.79 0.06,0.9 0.03,0.07 0.15,0.11 0.33,0.11l0.29 0.06 0.22 0.06 0.17 0.05 0.22 0.11c0.15,0.08 0.25,0.16 0.29,0.23 0.07,0.19 0.09,0.43 0.05,0.74 -0.04,0.3 -0.09,0.48 -0.17,0.56 -0.03,0.04 -0.26,0.04 -0.67,0 -0.3,-0.04 -0.57,-0.08 -0.79,-0.11l-1.41 -0.23 -0.79 -0.06 -0.79 -0.05c-0.6,-0.08 -0.97,-0.23 -1.12,-0.45 -0.08,-0.12 -0.12,-0.3 -0.12,-0.57 0,-0.26 0.04,-0.43 0.12,-0.51 0.07,-0.11 0.26,-0.17 0.56,-0.17 0.23,-0.03 0.53,-0.03 0.9,0 0.83,0.04 1.26,0.04 1.3,0 0.04,-0.07 0.05,-0.39 0.05,-0.96l-0.05 -0.73 0 -0.56c0,-2.3 -0.02,-5.1 -0.06,-8.42l-0.11 -8.52c-0.11,-6.89 -0.1,-12.48 0.05,-16.77l-2.36 7.06 -2.31 7.11c-1.84,5.5 -3.47,10.16 -4.9,14 -0.3,0.79 -0.73,1.92 -1.3,3.39l-0.67 1.69 -0.68 1.7c-0.04,0.07 -0.11,0.24 -0.22,0.51l-0.17 0.39 -0.12 0.34c-0.26,0.64 -0.37,1 -0.33,1.07 0.03,0.04 0.13,0.06 0.28,0.06l0.22 0.06 0.12 0.05c0.18,0.12 0.3,0.27 0.33,0.45 0.08,0.49 -0.11,0.72 -0.56,0.68 -0.11,0 -0.32,-0.02 -0.62,-0.06l-0.34 -0.05 -0.33 -0.06c-0.91,-0.07 -2.18,-0.04 -3.83,0.11l-0.4 0.06 -0.39 0.06c-0.3,0 -0.53,-0.02 -0.68,-0.06 -0.45,-0.07 -0.54,-0.37 -0.28,-0.9l0.11 -0.11 0.17 -0.12c0.15,-0.07 0.25,-0.15 0.28,-0.22 0.04,-0.12 0.04,-0.44 0,-0.96l-0.05 -0.74 0 -0.68c0,-0.97 0.03,-2.22 0.11,-3.72l0.06 -1.81 0.05 -1.69c0.04,-1.32 0.04,-2.96 0,-4.91l-0.05 -2.37 0 -11.07c0.03,-3.24 0.11,-6.1 0.22,-8.58 0,-0.11 0.02,-0.3 0.06,-0.57l0.11 -0.73c0.08,-0.56 0.08,-0.9 0,-1.02 -0.08,-0.11 -0.34,-0.22 -0.79,-0.33l-0.51 -0.12c-0.15,-0.04 -0.24,-0.09 -0.28,-0.17 -0.11,-0.19 -0.11,-0.45 0,-0.79l0.17 -0.39c0.08,-0.08 0.13,-0.13 0.17,-0.17 0.15,-0.11 0.4,-0.13 0.73,-0.06l0.51 0.06 0.45 0.11 1.75 0.34 0.33 0.06 0.4 0.11c0.41,0.11 0.73,0.21 0.96,0.28 0.75,0.3 1.01,0.66 0.78,1.07 -0.15,0.27 -0.69,0.31 -1.63,0.12l-0.51 -0.12 -0.5 -0.11c-0.3,-0.04 -0.49,-0.02 -0.57,0.06 -0.03,0.07 -0.05,0.39 -0.05,0.96l-0.06 0.73 0 0.57c-0.07,2.18 -0.09,4.94 -0.06,8.29l0.12 4.07 0.05 4.12c0,2.3 -0.07,5.46 -0.22,9.49l-0.17 4.62c-0.08,1.74 -0.11,3.24 -0.11,4.52zm13.07 -31.33c-2.37,6.92 -4.21,12.57 -5.53,16.93 1.84,-4.74 3.31,-8.71 4.4,-11.91l0.51 -1.52 0.45 -1.58c0.41,-1.28 0.77,-2.3 1.07,-3.05l0.28 -0.62 0.28 -0.74c0.26,-0.56 0.47,-1.07 0.62,-1.52 0.11,-0.3 0.26,-0.64 0.45,-1.02l0.28 -0.5 0.28 -0.51c0.23,-0.38 0.3,-0.6 0.23,-0.68 -0.38,-0.04 -0.58,-0.06 -0.62,-0.06 -0.04,0.04 -0.15,0.23 -0.34,0.57l-0.22 0.39 -0.12 0.23c-0.34,0.71 -0.69,1.62 -1.07,2.71l-0.45 1.47 -0.5 1.41zm3.43 -4.57l-0.62 1.63 -0.67 1.64c-0.49,1.28 -0.89,2.39 -1.19,3.33 0.98,-2.33 1.8,-4.53 2.48,-6.6zm-13.12 34.89l-0.23 0.67 -0.22 0.68c-0.19,0.53 -0.38,0.92 -0.57,1.19l0.45 0c0.04,-0.64 0.23,-1.43 0.57,-2.38l0.5 -1.12 0.23 -0.57 0.22 -0.51 1.64 -4.01c-0.04,-0.03 -0.11,0.06 -0.23,0.29l-0.11 0.28 -0.11 0.28 -2.14 5.2zm32.61 -36.98c-0.04,3.76 0.06,9.27 0.28,16.54l0.17 8.35c0.08,3.13 0.11,5.93 0.11,8.42 0,1.09 0.02,1.88 0.06,2.37l0.06 1.18c0.03,0.49 0.05,0.85 0.05,1.08l-0.05 0.22 -0.12 0.28c-0.11,0.23 -0.13,0.38 -0.05,0.45 0.03,0.08 0.26,0.16 0.67,0.23l0.45 0.06c0.19,0.04 0.3,0.05 0.34,0.05 0.23,0.12 0.42,0.27 0.57,0.46 0.15,0.22 0.2,0.41 0.16,0.56 -0.07,0.19 -0.37,0.28 -0.9,0.28l-1.29 0 -4.79 0.17 -0.62 0.06 -0.62 0.05c-0.49,0.04 -0.84,0 -1.07,-0.11 -0.19,-0.04 -0.37,-0.15 -0.56,-0.34 -0.23,-0.22 -0.28,-0.43 -0.17,-0.62 0.04,-0.07 0.17,-0.11 0.39,-0.11l0.28 -0.06 0.4 -0.05 0.28 0 0.34 -0.06c0.3,-0.04 0.47,-0.08 0.5,-0.11 0.04,-0.04 0.04,-0.38 0,-1.02l-0.05 -0.79 0 -0.68c-0.04,-1.01 -0.06,-2.26 -0.06,-3.72l0 -6.21 -0.05 -2.49c0,-1.92 0.03,-3.59 0.11,-5.02 0.15,-4.29 0.09,-10.03 -0.17,-17.22l0 -0.62 -0.06 -0.74c0,-0.64 -0.02,-0.98 -0.05,-1.01 -0.12,-0.12 -0.6,-0.15 -1.47,-0.12l-0.96 0c-0.33,0.04 -0.54,0.06 -0.61,0.06 -0.34,-0.04 -0.85,-0.06 -1.52,-0.06l-0.46 0 -0.45 -0.05c-0.33,-0.04 -0.52,-0.04 -0.56,0 -0.04,0.04 -0.06,0.32 -0.06,0.84l0 2.43c0.04,0.6 0.02,0.94 -0.05,1.02 -0.19,0.15 -0.43,0.09 -0.74,-0.17 -0.11,-0.08 -0.22,-0.17 -0.33,-0.28 -0.12,-0.12 -0.17,-0.19 -0.17,-0.23 -0.12,-0.3 -0.15,-0.85 -0.12,-1.64l0.06 -0.9c0.04,-0.38 0.06,-0.66 0.06,-0.85l-0.06 -0.33 -0.06 -0.34c-0.03,-0.27 -0.01,-0.44 0.06,-0.51 0.08,-0.08 0.39,-0.11 0.96,-0.11l0.68 0.05 4.11 0c1.39,-0.04 2.46,-0.04 3.21,0l3.83 0c1.54,0 2.85,-0.04 3.94,-0.11l0.28 0 0.34 -0.06 0.45 0c0.08,-0.03 0.13,-0.13 0.17,-0.28 0.04,-0.15 0.08,-0.25 0.11,-0.28 0.15,-0.15 0.42,-0.17 0.79,-0.06 0.34,0.08 0.55,0.21 0.62,0.4 0.04,0.11 0.02,0.3 -0.06,0.56l-0.05 0.34 -0.06 0.28c-0.04,0.15 -0.04,0.45 0,0.91l0 1.29c-0.04,1.13 -0.19,1.75 -0.45,1.87 -0.41,0.11 -0.73,0.03 -0.96,-0.23 -0.18,-0.23 -0.28,-0.55 -0.28,-0.96 -0.04,-0.19 -0.05,-0.39 -0.05,-0.62 0,-0.26 0.01,-0.45 0.05,-0.56l0 -0.29 0.06 -0.34c0.04,-0.3 0.04,-0.47 0,-0.5 -0.11,-0.12 -0.53,-0.15 -1.24,-0.12 -0.26,0 -0.51,0.02 -0.73,0.06 -0.23,0.04 -0.36,0.06 -0.4,0.06l-1.18 0c-0.41,-0.04 -0.83,-0.04 -1.24,0zm-1.75 20.21c0,2.07 0.06,4.1 0.17,6.1l0 2.37 -0.05 1.18 0 1.19c0.03,1.77 0.22,3.12 0.56,4.06 -0.04,-3.72 -0.13,-8.18 -0.28,-13.38l-0.17 -6.6 -0.17 -6.67c-0.26,1.55 -0.36,3.45 -0.28,5.71l0.11 2.99 0.11 3.05zm-1.74 18.97l0.45 0c-0.04,-1.51 -0.08,-3.3 -0.11,-5.37l-0.06 -5.47c-0.04,-4.78 -0.11,-8.43 -0.23,-10.96 -0.07,1.59 -0.13,3.39 -0.16,5.42l-0.06 5.54c0,4.85 -0.08,8.49 -0.23,10.89l0.4 -0.05zm22.36 -28.4c2.85,1.02 4.71,4.06 5.58,9.15 0.15,0.9 0.32,2.01 0.5,3.33l0.34 3.38c0.34,2.79 0.71,4.92 1.13,6.38 0.11,0.42 0.2,0.77 0.28,1.08l0.39 1.13c0.3,0.9 0.64,1.63 1.02,2.2 0.11,0.15 0.26,0.35 0.45,0.62 0.26,0.3 0.41,0.45 0.45,0.45 0.04,0 0.15,-0.11 0.34,-0.34l0.17 -0.28 0.28 -0.17c0.64,-0.3 1.01,-0.19 1.12,0.34 0.12,0.52 -0.01,1.02 -0.39,1.47 -0.34,0.37 -0.81,0.66 -1.41,0.84 -0.71,0.27 -1.37,0.32 -1.97,0.17 -1.43,-0.34 -2.61,-1.07 -3.55,-2.2 -0.98,-1.17 -1.86,-3.03 -2.65,-5.59 -0.67,-2.22 -1.16,-4.5 -1.46,-6.83 -0.11,-0.87 -0.21,-1.92 -0.28,-3.16l-0.06 -1.64 -0.11 -1.64c-0.15,-2.67 -0.41,-4.74 -0.79,-6.21l-0.06 -0.17 -0.05 -0.22 -0.11 -0.45c-0.16,-0.38 -0.25,-0.59 -0.29,-0.62 -0.07,-0.04 -0.24,0.03 -0.5,0.22l-0.34 0.28 -0.11 0.12 -0.06 0.05 -0.28 0.17 -0.34 0.23c-0.23,0.15 -0.36,0.28 -0.39,0.39 -0.04,0.08 -0.06,0.29 -0.06,0.63l0 0.95c-0.23,4.41 -0.26,8.04 -0.11,10.9l0.05 2.37 0 2.37c-0.03,2.07 -0.02,3.67 0.06,4.8l0.06 0.79 0.05 0.74c0.04,0.6 0.04,1.07 0,1.41 -0.03,0.11 -0.09,0.22 -0.17,0.34l-0.05 0.11 -0.12 0.22c0.15,0.04 0.34,0.04 0.57,0l0.62 -0.05c0.49,-0.04 0.79,0 0.9,0.11 0.07,0.08 0.13,0.23 0.17,0.45 0.04,0.23 0.02,0.4 -0.06,0.51 -0.11,0.11 -0.43,0.17 -0.96,0.17l-1.24 0c-2.02,0 -3.77,0.17 -5.24,0.51 -0.86,0.26 -1.21,0.09 -1.07,-0.51 0.04,-0.26 0.25,-0.43 0.62,-0.51l0.23 -0.05 0.28 -0.06c0.15,0 0.26,-0.04 0.34,-0.11 0.04,-0.04 0.04,-0.21 0,-0.51l0 -0.57c0,-1.05 -0.02,-2.74 -0.06,-5.08 -0.03,-2.33 -0.05,-4.14 -0.05,-5.42 0,-0.94 0.03,-2.42 0.11,-4.46 0.07,-2.07 0.11,-3.67 0.11,-4.8l0 -1.13 0.06 -1.18c0.04,-0.98 0.04,-1.79 0,-2.43 -0.15,-2.48 -0.11,-6.32 0.11,-11.52l0 -0.62 0.06 -0.73c0.07,-0.56 0.09,-0.87 0.05,-0.9 -0.03,-0.04 -0.13,-0.06 -0.28,-0.06l-0.28 0.06 -0.28 0c-0.49,0.07 -0.77,0.05 -0.85,-0.06 -0.07,-0.11 -0.07,-0.3 0,-0.56 0.08,-0.27 0.19,-0.44 0.34,-0.51 0.15,-0.12 0.6,-0.19 1.35,-0.23 0.27,-0.04 0.57,-0.05 0.9,-0.05l0.62 0c0.3,-0.04 0.72,-0.04 1.24,0l1.24 0c0.42,-0.04 0.89,-0.04 1.41,0 0.56,0.03 0.88,0.09 0.96,0.16 0.07,0.08 0.11,0.23 0.11,0.46 0,0.3 -0.02,0.47 -0.05,0.5 -0.15,0.12 -0.44,0.14 -0.85,0.06l-0.56 -0.06c-0.19,0 -0.36,0.02 -0.51,0.06 0.34,3.2 0.45,7.08 0.34,11.63 3.53,-2.86 6.49,-6.68 8.9,-11.46 -0.26,-0.08 -0.68,-0.06 -1.24,0.06 -0.56,0.15 -0.88,0.2 -0.96,0.17 -0.07,-0.04 -0.15,-0.14 -0.22,-0.29 -0.12,-0.18 -0.15,-0.33 -0.12,-0.45 0.04,-0.3 0.68,-0.64 1.92,-1.01 1.16,-0.31 2.1,-0.46 2.81,-0.46 0.42,-0.03 0.81,0.1 1.19,0.4 0.37,0.3 0.51,0.58 0.39,0.85 -0.03,0.07 -0.13,0.15 -0.28,0.22 -0.15,0.04 -0.3,0.08 -0.45,0.12l-0.56 0c-0.23,0 -0.36,0.03 -0.4,0.11 -0.04,0.04 -0.07,0.15 -0.11,0.34l-0.06 0.22 0 0.17 -0.39 0.68c-0.19,0.34 -0.34,0.6 -0.45,0.79 -0.75,1.35 -1.84,2.9 -3.27,4.63 -0.49,0.6 -1.11,1.33 -1.86,2.2l-0.95 1.07 -0.85 1.02zm-6.42 -10.84c0.04,0.79 0,1.92 -0.11,3.39l-0.12 1.8 -0.05 1.81 -0.12 1.81 -0.05 1.75c-0.04,1.35 -0.02,2.5 0.05,3.44 0.15,-1.5 0.27,-3.88 0.34,-7.11 0.08,-3.2 0.17,-5.55 0.28,-7.06 -0.03,-0.07 -0.07,-0.09 -0.11,-0.06 -0.07,0.08 -0.11,0.15 -0.11,0.23zm1.63 12.87c0.23,-0.15 0.32,-0.43 0.28,-0.84l0 -0.57 -0.05 -0.56 0 -0.79 -0.06 -0.79c0,-0.57 -0.04,-0.96 -0.11,-1.19l0 1.19 -0.06 1.18c-0.07,1.02 -0.07,1.81 0,2.37zm0.06 1.36c-0.15,0.11 -0.23,0.54 -0.23,1.3l0 0.9c0.04,0.38 0.06,0.6 0.06,0.68l0 1.92 -0.06 1.86c0,1.43 0.02,2.65 0.06,3.67l0 1.02c0,0.41 0.02,0.56 0.06,0.45l0.28 -4.97c0.03,-0.83 0.05,-1.92 0.05,-3.28l0.06 -1.75 0 -1.92c-0.11,-0.03 -0.21,0 -0.28,0.12zm-2.31 0.9c-0.08,2.07 -0.06,4.07 0.05,5.98 0.12,2.07 0.17,4.58 0.17,7.51l0 7.68c0,0.11 -0.01,0.34 -0.05,0.68l0 0.45 -0.06 0.45c-0.04,0.79 0,1.23 0.11,1.3 0.08,0.04 0.19,0.04 0.34,0l0.17 -0.05 0.11 0c0.12,-0.12 0.12,-0.48 0,-1.08l-0.05 -0.39 -0.06 -0.29c-0.04,-0.22 -0.06,-0.35 -0.06,-0.39 0,-0.11 0.02,-0.26 0.06,-0.45l0.06 -0.17 0.05 -0.23c0.04,-0.64 0.02,-1.48 -0.05,-2.54l-0.12 -1.3 -0.05 -1.3c-0.11,-2.18 -0.19,-4.85 -0.23,-8.01l0 -4.01 -0.05 -1.98 0 -1.92c-0.15,0 -0.27,0.02 -0.34,0.06zm9.58 0.34c-0.16,-0.34 -0.21,-0.38 -0.17,-0.11 0,0.11 0.01,0.26 0.05,0.45l0.12 0.51c0.18,1.09 0.39,2.54 0.61,4.34l0.29 2.26 0.28 2.32c0.49,3.65 1.1,6.38 1.86,8.18 -0.34,-1.13 -0.6,-2.59 -0.79,-4.4l-0.28 -2.37 -0.23 -2.49c-0.37,-4.1 -0.96,-7 -1.74,-8.69zm4.67 22.58c-0.23,-0.19 -0.51,-0.49 -0.85,-0.9l-0.33 -0.45c-0.15,-0.15 -0.27,-0.27 -0.34,-0.34l0.34 0.45 0.33 0.45c0.31,0.38 0.59,0.64 0.85,0.79zm12.45 -26.19c-0.72,-1.36 -1.09,-2.9 -1.13,-4.63 -0.04,0.33 -0.07,0.62 -0.11,0.84l-0.11 0.96c-0.04,0.76 0.03,1.36 0.22,1.81 0.08,0.19 0.25,0.38 0.51,0.56l0.34 0.23 0.28 0.23zm11.6 14.28c0.11,-2.52 0.13,-5.53 0.06,-9.03l-0.06 -4.52 -0.11 -4.46c-0.26,2.52 -0.36,5.51 -0.28,8.98l0.17 4.57 0.11 2.26 0.11 2.2zm-13.86 -22.75l-0.11 3.61c-0.15,0.83 -0.07,1.51 0.23,2.03 0,-0.6 -0.04,-2.48 -0.12,-5.64zm12.68 32.57l0.11 -0.17c0.04,-0.15 0.02,-0.18 -0.06,-0.11 -0.15,0.49 -0.39,1.02 -0.73,1.58l-0.39 0.68 -0.34 0.56c0.41,-0.07 0.73,-0.37 0.96,-0.9 0.07,-0.19 0.15,-0.43 0.22,-0.73l0.17 -0.79 0.06 -0.12zm-0.28 -7.39c0.03,-3.8 -0.02,-8.11 -0.17,-12.93l-4.4 0.34c-2.48,-0.34 -4.41,-1.04 -5.8,-2.09 -0.75,-0.6 -1.39,-1.32 -1.91,-2.15 -0.64,-0.94 -1,-1.88 -1.07,-2.82 -0.08,-0.68 -0.04,-3.65 0.11,-8.92l-0.45 -0.06 -0.34 0 -0.34 0.06c-0.26,0.04 -0.43,0.02 -0.5,-0.06 -0.08,-0.03 -0.15,-0.18 -0.23,-0.45 -0.07,-0.26 -0.09,-0.43 -0.06,-0.51 0,-0.07 0.16,-0.13 0.46,-0.17l0.61 0c1.13,-0.11 2.26,-0.15 3.38,-0.11l0.68 0c0.38,0 0.73,0.02 1.07,0.06 1.01,0.04 1.56,0.13 1.63,0.28 0.12,0.26 0.16,0.47 0.12,0.62 0,0.08 -0.04,0.17 -0.12,0.28 -0.07,0.08 -0.11,0.14 -0.11,0.17 -0.11,0.08 -0.26,0.08 -0.45,0l-0.28 -0.05 -1.13 0c0.08,6.28 0.4,10.03 0.96,11.23l0.11 0.28 0.11 0.29 0.34 0.62c0.27,0.49 0.53,0.81 0.79,0.96 0.27,0.15 0.77,0.24 1.52,0.28l0.9 0.11c0.34,0 0.6,0.02 0.79,0.06l0.85 0 0.84 0.06c0.75,0 1.37,0.01 1.86,0.05 -0.26,-4.55 -0.24,-8.6 0.06,-12.14l0 -0.22 0.05 -0.29 0.06 -0.62c0.04,-0.45 0.02,-0.67 -0.06,-0.67l-0.5 0 -1.02 -0.12 -0.28 0 -0.28 0.06c-0.23,0.04 -0.36,0.02 -0.39,-0.06 -0.08,-0.03 -0.14,-0.18 -0.17,-0.45 -0.08,-0.26 -0.12,-0.43 -0.12,-0.51 0.04,-0.07 0.17,-0.13 0.4,-0.17l0.5 0c0.61,-0.07 1.23,-0.11 1.86,-0.11l0 -0.05 0.06 0c1.28,-0.04 2.63,0 4.06,0.11l0.78 0c0.34,0.04 0.6,0.09 0.79,0.17 0.57,0.15 0.79,0.45 0.68,0.9 -0.08,0.26 -0.38,0.34 -0.9,0.23l-0.23 -0.06 -0.28 0c-0.19,-0.04 -0.3,-0.02 -0.34,0.06 -0.03,0.03 -0.03,0.32 0,0.84l0.06 0.74 0.06 0.67 0.11 2.94 0.05 2.82c0.04,2.15 0.02,4.07 -0.05,5.76 -0.04,0.6 -0.04,1.39 0,2.37l0.05 1.19 0 1.18c0,1.1 0.04,2.66 0.12,4.69 0.07,2.03 0.11,3.56 0.11,4.57l0 0.74c0,1.24 -0.09,2.46 -0.28,3.67 -0.38,2.59 -1.2,4.49 -2.48,5.7 -0.6,0.64 -1.35,1.19 -2.25,1.64 -1.02,0.56 -1.99,0.88 -2.93,0.96 -2.07,0.22 -3.98,-0.36 -5.75,-1.75 -2.7,-1.96 -3.96,-5.46 -3.77,-10.51l0.05 -0.45 0.06 -0.51c0.08,-0.37 0.19,-0.63 0.34,-0.79 0.26,-0.18 0.64,-0.22 1.13,-0.11 0.48,0.15 0.8,0.36 0.95,0.62 0.3,0.45 0.4,1.06 0.28,1.81 -0.03,0.26 -0.11,0.56 -0.22,0.9l-0.11 0.45 -0.12 0.34 -0.05 0.51 -0.06 0.51 -0.17 1.13c-0.15,0.86 -0.17,1.52 -0.05,1.97 0.18,0.83 0.65,1.59 1.4,2.26 0.53,0.45 1.24,0.92 2.15,1.41l0.84 0.4c0.34,0.15 0.66,0.26 0.96,0.34 0.71,0.15 1.33,0.06 1.86,-0.28 0.6,-0.31 1.14,-0.89 1.63,-1.75 1.16,-2.04 1.69,-4.86 1.58,-8.47zm3.55 -4.52l0.05 -4.63 0.06 -2.43c0,-0.98 -0.02,-1.78 -0.06,-2.42 -0.11,-1.43 -0.19,-3.47 -0.22,-6.1l-0.12 -3.11 -0.11 -3.05 -0.06 -0.67 0 -0.68c-0.03,-0.53 -0.09,-0.92 -0.16,-1.19l-0.06 0 -0.06 0.06c0.53,8.43 0.62,18.01 0.28,28.74l0.06 0c-0.04,1.62 -0.21,3.33 -0.51,5.13 0.45,-1.16 0.7,-2.52 0.74,-4.06 0,-0.38 0.01,-0.73 0.05,-1.07l0.12 -4.52z"/>
   </g>
   <path class="fil1" d="M138.11 56.79c-1.35,0.08 -2.62,0.16 -3.96,0.38 -9.13,1.07 -15.94,3.72 -23.2,6.61 -4.18,1.63 -7.92,3.16 -12.19,4.84 -1.94,0.76 -4.26,1.38 -6.51,1.99 -2.24,0.53 -5.01,1.06 -7.55,0.98 -1.8,-0.15 -3.59,-0.6 -4.94,-1.13 -0.45,-0.23 -1.12,-0.54 -1.35,-0.7 -0.15,-0.23 -0.15,-0.46 -0.37,-0.68 -0.15,-0.23 -0.45,-0.31 -0.6,-0.46 -0.37,-0.45 -0.67,-0.92 -0.75,-1.38 -0.22,-1.45 0.9,-2.67 0.45,-3.97 -0.07,-0.38 -0.37,-0.83 -0.75,-0.99 -0.3,-0.1 -1.19,-0.33 -1.49,-0.25 -1.2,0.15 -1.87,1.82 -1.8,3.34 0.08,1.52 0.98,3.19 1.87,4.17 1.95,1.98 5.61,3.65 9.05,3.95 2.7,0.15 5.47,-0.3 8.01,-0.83 5.01,-1.22 9.05,-2.89 13.31,-4.57 2.1,-0.91 4.27,-1.68 6.44,-2.52 4.41,-1.76 8.6,-3.51 13.24,-4.67 2.32,-0.6 4.79,-1.3 7.33,-1.6 2.69,-0.38 5.46,-0.84 8.23,-0.68 1.94,0.07 3.74,0.45 5.46,1.06 1.5,0.47 3.59,1.22 4.26,2.38 0.98,1.6 0.68,5.19 3.15,4.97 1.57,-0.17 1.79,-2.08 1.12,-3.37 -1.27,-2.6 -3.14,-3.6 -5.46,-4.74 -0.98,-0.53 -2.02,-0.99 -3.07,-1.29 -2.39,-0.76 -5.46,-0.99 -7.93,-0.84zm-63.14 8.55c-0.15,-0.46 0,-1.07 0.3,-1.22 0.15,0.3 -0.22,0.76 -0.3,1.21l0 0.01zm99.2 -8.09c-0.08,0 -0.08,0 -0.15,0 -3.52,0 -6.81,1.44 -8.9,2.88 -1.05,0.69 -2.25,1.52 -3.15,2.74 -0.44,0.53 -0.82,1.13 -0.82,2.12 0,0.84 0.3,1.59 1.27,1.75 1.5,0.15 2.32,-1.52 2.92,-2.51 0.75,-1.29 1.35,-2.58 2.24,-3.19 0.6,-0.45 1.73,-0.91 2.7,-1.21 3.89,-1.21 8.38,-0.53 12.34,0.53 5.69,1.44 10.1,3.57 15.26,5.47 2.62,0.91 5.16,1.74 7.71,2.65 5.01,1.67 10.69,3.57 17.05,3.64 1.65,0 3.22,-0.22 4.72,-0.45 2.99,-0.53 5.68,-1.21 7.93,-2.43 1.72,-0.91 3.74,-2.35 3.74,-4.78 0,-1.44 -0.75,-2.43 -1.87,-2.35 -1.65,0 -1.8,2.35 -2.4,3.56 -0.75,1.58 -1.87,2.34 -3.36,2.95 -0.6,0.24 -1.13,0.47 -2.02,0.77 -4.79,1.22 -10.63,0.76 -15.19,-0.3 -4.86,-1.23 -8.98,-2.68 -13.17,-4.14 -4.11,-1.53 -8.23,-3.36 -12.49,-4.82 -4.04,-1.44 -9.2,-3.11 -14.36,-2.88l0 0zm-35.16 3.57c-0.6,0.15 -0.97,1.06 -1.05,1.44 -0.22,1.74 2.09,2.28 2.99,1.44 1.35,-1.36 -0.22,-3.49 -1.94,-2.88zm-7.41 0.68c-0.45,0.15 -0.6,0.38 -0.67,0.76 -0.15,1.44 1.87,2.28 2.62,1.21 0.82,-1.21 -0.75,-2.35 -1.95,-1.97zm46.16 0.15c-0.38,0.08 -0.67,0.38 -0.75,0.61 -0.15,0.45 0.3,1.59 0.45,1.9 0.67,0.98 2.39,0.83 2.62,-0.23 0.3,-1.44 -1.27,-2.58 -2.32,-2.28zm-51.54 0.91c-0.98,0.23 -1.28,1.14 -0.98,2.05 0.45,1.37 2.77,1.44 3.07,0.15 0.37,-1.51 -1.35,-2.42 -2.09,-2.2zm59.47 0.61c-1.05,0.23 -0.75,0.99 -0.6,1.67 0.07,0.23 0.07,0.53 0.15,0.76 0.6,1.14 2.77,1.06 2.84,-0.53 0,-1.14 -1.57,-2.13 -2.39,-1.9zm8.83 4.48c-0.23,0.07 -0.53,0.3 -0.53,0.76 0.08,1.06 3.07,1.89 3.07,0.45 0,-0.83 -1.8,-1.52 -2.54,-1.21zm-36.59 0.07c-0.37,0 -0.74,-0.07 -1.04,0.08 -0.3,0.07 -1.05,0.61 -1.27,0.91 -0.3,0.38 -0.68,1.29 -0.53,2.05 0.45,2.58 5.16,2.88 5.91,0.23 0.38,-1.45 -0.67,-2.81 -1.79,-3.19 -0.38,-0.15 -1.05,-0.15 -1.28,-0.08l0 0zm12.2 -5.99c-0.53,0.15 -1.05,1.44 -1.12,1.89 0,0.16 0,0.38 0,0.54 0.3,2.27 4.04,1.74 4.26,-0.23 0.15,-1.44 -1.79,-2.58 -3.14,-2.2z"/>
  </g>
 </g>
</svg>
